#!OML:ASF F:\VICON\USERDATA\INSTALL\rory3\rory3.ASF
:FULLY-SPECIFIED
:DEGREES
328
root 1.0542 17.8193 25.0998 -2.38702 -3.44927 -2.7557
lowerback 8.43318 2.38656 2.93772
upperback 0.497687 3.49205 0.870469
thorax -4.08715 1.6833 -1.1539
lowerneck -16.0362 -3.08509 -1.45947
upperneck 18.8543 -4.18239 1.34296
head 8.58496 -1.93297 0.19046
rclavicle 1.38932e-014 -3.62782e-015
rhumerus -27.1578 -14.5083 -79.9318
rradius 31.2242
rwrist 2.48233
rhand -15.6324 22.399
rfingers 7.12502
rthumb 10.5548 -7.31597
lclavicle 1.38932e-014 -3.62782e-015
lhumerus -38.2453 4.66224 83.5904
lradius 22.6219
lwrist -1.39932
lhand -21.6227 33.4633
lfingers 7.12502
lthumb 4.77312 63.3895
rfemur 2.43928 4.86075 26.6062
rtibia 53.9265
rfoot 10.4522 3.33446
rtoes 5.13826
lfemur -20.8631 -2.14202 -19.1267
ltibia 28.3647
lfoot -4.73708 -3.9559
ltoes -1.46414
329
root 1.07252 17.8372 25.2736 -2.39252 -3.42642 -2.42224
lowerback 8.4982 2.33041 2.68893
upperback 0.545047 3.38992 0.759421
thorax -4.08557 1.63673 -1.12033
lowerneck -16.4253 -3.04011 -1.43465
upperneck 18.9856 -4.12239 1.33273
head 8.69803 -1.90014 0.183249
rclavicle -4.79257e-015 -5.56597e-015
rhumerus -27.2108 -14.79 -79.9952
rradius 30.846
rwrist 2.51479
rhand -15.7049 22.9184
rfingers 7.12502
rthumb 10.4848 -6.80013
lclavicle -4.79257e-015 -5.56597e-015
lhumerus -38.0503 4.64376 83.4742
lradius 22.6311
lwrist -1.23358
lhand -22.2221 32.5687
lfingers 7.12502
lthumb 4.19431 62.5071
rfemur 0.952272 4.83875 26.0545
rtibia 56.3286
rfoot 13.3832 2.9021
rtoes 9.17105
lfemur -20.1675 -2.10833 -19.665
ltibia 28.2027
lfoot -4.99672 -4.04103
ltoes -1.36145
330
root 1.08738 17.853 25.4526 -2.434 -3.65452 -1.95727
lowerback 8.56054 2.37018 2.23996
upperback 0.496517 3.39673 0.618189
thorax -4.1879 1.64524 -1.02125
lowerneck -16.1647 -2.9647 -1.45004
upperneck 18.8237 -4.05106 1.50103
head 8.59923 -1.85302 0.256282
rclavicle -2.4612e-014 -1.28713e-014
rhumerus -27.5531 -14.9476 -80.0894
rradius 30.5968
rwrist 2.61886
rhand -15.7537 22.4719
rfingers 7.12502
rthumb 10.4378 -7.24903
lclavicle -2.4612e-014 -1.28713e-014
lhumerus -38.1431 4.49266 83.3321
lradius 22.6656
lwrist -0.638962
lhand -22.8102 30.5364
lfingers 7.12502
lthumb 3.62635 60.4853
rfemur -0.449404 4.98923 25.4032
rtibia 58.6566
rfoot 15.9097 2.74564
rtoes 11.2166
lfemur -19.4278 -1.98822 -20.3069
ltibia 28.1237
lfoot -5.19233 -3.85387
ltoes -0.857999
331
root 1.1003 17.8666 25.6379 -2.67387 -3.90348 -1.6207
lowerback 8.69605 2.40513 1.82281
upperback 0.573662 3.40452 0.614785
thorax -4.20709 1.65694 -0.797431
lowerneck -16.046 -2.8951 -1.40544
upperneck 18.6382 -3.94804 1.42922
head 8.51075 -1.81128 0.240348
rclavicle -9.52613e-015 2.38542e-015
rhumerus -27.6698 -14.9775 -80.0927
rradius 30.218
rwrist 2.7983
rhand -15.7247 22.1306
rfingers 7.12502
rthumb 10.4657 -7.58893
lclavicle -9.52613e-015 2.38542e-015
lhumerus -38.1068 4.42699 83.3141
lradius 23.0723
lwrist -0.0138446
lhand -22.0476 31.4211
lfingers 7.12502
lthumb 4.36282 61.3562
rfemur -1.57228 5.03816 24.9194
rtibia 60.8374
rfoot 17.4751 2.52293
rtoes 12.1946
lfemur -18.4724 -1.96819 -20.798
ltibia 28.1493
lfoot -5.61856 -3.47064
ltoes -0.324573
332
root 1.11257 17.8785 25.8199 -2.77594 -3.92696 -1.58205
lowerback 8.57691 2.307 1.74261
upperback 0.762015 3.2631 0.691847
thorax -3.95695 1.59304 -0.645553
lowerneck -16.1719 -2.86274 -1.33389
upperneck 18.3657 -3.86953 1.22121
head 8.43387 -1.79218 0.168423
rclavicle -2.7336e-014 1.09332e-015
rhumerus -27.386 -14.9836 -80.1572
rradius 29.6686
rwrist 2.99764
rhand -15.8235 22.5139
rfingers 7.12502
rthumb 10.3704 -7.21041
lclavicle -2.7336e-014 1.09332e-015
lhumerus -37.7406 4.4955 83.3046
lradius 23.2674
lwrist 0.398179
lhand -21.3497 32.1221
lfingers 7.12502
lthumb 5.03672 62.0423
rfemur -2.85868 4.80239 24.726
rtibia 62.891
rfoot 17.8038 1.94757
rtoes 15.3376
lfemur -17.6821 -2.12778 -20.9699
ltibia 28.1369
lfoot -6.06758 -3.24064
ltoes 0.0771802
333
root 1.11988 17.8945 25.9965 -2.7748 -3.76612 -1.59766
lowerback 8.5177 2.16465 1.69105
upperback 0.871858 3.06844 0.764861
thorax -3.8206 1.50002 -0.513457
lowerneck -16.4628 -2.85731 -1.48238
upperneck 18.3242 -3.8402 1.31712
head 8.4767 -1.77693 0.22452
rclavicle 7.14382e-014 0
rhumerus -27.2037 -15.0185 -80.223
rradius 29.2338
rwrist 3.19596
rhand -15.5205 22.4147
rfingers 7.12502
rthumb 10.6627 -7.29474
lclavicle 7.14382e-014 0
lhumerus -37.2991 4.45301 83.3291
lradius 23.3825
lwrist 0.880047
lhand -20.9211 32.883
lfingers 7.12502
lthumb 5.45057 62.7929
rfemur -4.20972 4.40575 24.6497
rtibia 64.7793
rfoot 17.2539 1.14199
rtoes 20.912
lfemur -16.9716 -2.30605 -21.0806
ltibia 28.0186
lfoot -6.51675 -3.02578
ltoes -0.377289
334
root 1.13176 17.9103 26.1735 -2.75893 -3.6142 -1.30082
lowerback 8.48829 2.04804 1.37336
upperback 0.860585 2.8831 0.760136
thorax -3.83473 1.41295 -0.318733
lowerneck -16.6645 -2.7871 -1.63374
upperneck 18.4979 -3.72445 1.40753
head 8.57496 -1.72103 0.289933
rclavicle -3.08365e-014 1.53064e-014
rhumerus -27.2597 -15.2268 -80.1532
rradius 28.7881
rwrist 3.88453
rhand -15.0619 21.6897
rfingers 7.12502
rthumb 11.105 -7.99648
lclavicle -3.08365e-014 1.53064e-014
lhumerus -37.1259 4.80621 83.0838
lradius 24.1713
lwrist -0.350836
lhand -17.1899 37.3878
lfingers 7.12502
lthumb 9.05211 67.1736
rfemur -5.55668 3.94822 24.166
rtibia 66.5598
rfoot 15.7634 0.643837
rtoes 23.998
lfemur -16.2774 -2.49712 -21.559
ltibia 27.8596
lfoot -7.00537 -2.74171
ltoes -1.67574
